<?xml version="1.0" encoding="utf-8"?>
<svg version="1.1" id="Layer_1" xmlns="http://www.w3.org/2000/svg" xmlns:xlink="http://www.w3.org/1999/xlink" x="0px" y="0px"
	 viewBox="0 0 7272.318 4001.046" enable-background="new 0 0 7272.318 4001.046" xml:space="preserve">
<g>
	<path fill="#BA0300" stroke="#BA0300" stroke-width="1" d="M2774.531,17.576c15.206-2.568,28.958-9.934,42.474-17.03
		c11.894,4.359,24.228,8.921,37.169,8.144c19.936-0.98,40.379-4.224,59.944,1.622c17.571,4.021,32.27,14.699,48.151,22.606
		c16.591,7.704,33.79-2.568,50.483-4.359c9.63,3.886,17.875,10.543,27.64,14.26c20.139,7.873,41.63,12.975,60.316,24.295
		c11.793,7.231,18.551,19.767,27.573,29.87c22.782,26.476,48.435,28.782,52.273,42.069c5.136,13.449,9.698,27.167,16.422,39.974
		c9.157,22.673,32.878,38.42,34.129,64.235c0.372,21.795,10.576,41.697,22.098,59.64c1.284,13.854-0.642,27.641-2.771,41.292
		c-6.488,41.292,11.32,83.259-2.433,123.875c-4.562,15.713-7.502,31.831-8.279,48.219c-0.777,18.247-11.759,33.452-19.767,49.131
		c-13.55,19.632-6.049,46.631-21.862,65.013c-9.901,12.198-21.322,24.667-22.167,41.258c-3.041,29.296-20.984,60.62-51.26,67.851
		c-39.089-21.035-235.796-237.863-236.735-238.863c3.954-3.751,8.042-7.4,11.894-11.252c19.632,21.187,40.718,41.731,65.148,57.308
		c14.462-14.969,21.389-35.007,26.593-54.706c-25.005-9.225-51.192-14.496-76.501-22.775c1.487-3.413,2.872-6.826,4.224-10.272
		c25.376,6.488,50.989,12.131,76.366,18.821c10.103-51.057,2.23-104.885-20.646-151.482c-30.851,23.146-57.579,51.395-87.888,75.285
		c-0.068-8.414,0.98-16.76,2.129-25.039c24.532-20.274,45.144-44.772,69.54-65.182c4.697,3.717,9.461,7.502,14.361,11.117
		c-26.017-34.026-89.633-71.605-160.402-67.074c5.44,39.4,13.786,78.36,20.173,117.624c-8.549-5.913-15.814-13.313-22.47-21.186
		c-2.264-31.898-9.969-63.154-16.523-94.376c-18.889,1.386-37.068,6.691-54.673,13.415c3.177,13.651,11.387,25.275,17.807,37.541
		c-4.663,2.061-9.225,4.123-13.685,6.42c-18.898-15.383-148.781-201.64-161.349-243.831c13.584-11.016,26.188-23.89,42.373-31.053
		c13.077-3.717,26.998-1.25,40.345-3.514c18.619-2.332,33.959-14.766,52.24-18.213C2736.078,15.042,2755.439,20.888,2774.531,17.576
		 M2774.531,31.092c-19.497,4.866-39.467-2.973-58.964,1.453c-10.34,2.196-19.058,8.616-28.958,11.996
		c-36.064,12.796-66.89-2.612-85.287,32.371c9.758,31.368,82.154,142.115,121.611,188.854
		c54.281-29.767,124.341-31.079,178.176-9.36c84.695,36.371,92.036,67.881,105.459,121.07
		c16.683,60.589-0.088,128.968-19.869,163.241c-5.271,9.326-14.834,14.834-21.93,22.572
		c48.083,54.605,100.121,105.628,153.644,154.928c3.345,2.838,7.434,6.657,12.333,4.325c10.34-5.305,17.74-14.901,23.518-24.734
		c8.616-14.259,7.231-31.763,13.516-46.867c5.373-17.875,25.917-27.37,27.404-46.901c1.081-22.538,10.542-43.319,22.369-62.106
		c11.827-18.45,8.515-41.224,13.516-61.634c5.203-21.355,11.455-43.319,8.076-65.452c-4.089-29.093-5.238-58.829,0.135-87.821
		c3.683-18.044-7.434-33.959-14.395-49.604c-9.022-18.078-2.94-41.224-17.199-57.106c-19.565-22.335-29.229-50.719-41.157-77.312
		c-13.549-11.421-30.31-18.618-42.88-31.357c-11.826-10.678-18.618-26.559-32.979-34.365
		c-23.687-12.739-50.246-18.618-74.203-30.749c-19.388-11.367-32.328,18.554-79.205-11.962
		c-21.93-13.989-48.996-17.402-74.339-13.212c-15.476,2.973-30.411-2.94-45.617-4.258
		C2803.185,22.206,2789.5,28.828,2774.531,31.092z"/>
	<path fill="#FE0000" stroke="#FE0000" stroke-width="1" d="M2774.531,31.092c14.969-2.264,28.654-8.887,42.778-13.989
		c15.206,1.318,30.141,7.231,45.617,4.258c68.696-11.358,82.328,34.19,120.936,26.796c10.712-1.183,22.234-7.704,32.608-1.622
		c23.957,12.131,50.516,18.01,74.203,30.749c14.361,7.806,21.153,23.687,32.979,34.365c12.57,12.739,29.33,19.936,42.88,31.357
		c11.928,26.593,21.592,54.977,41.157,77.312c14.26,15.881,8.177,39.028,17.199,57.106c6.961,15.645,18.078,31.56,14.395,49.604
		c-5.373,28.992-4.224,58.728-0.135,87.821c3.379,22.133-2.873,44.096-8.076,65.452c-5.001,20.409-1.689,43.184-13.516,61.634
		c-11.827,18.787-21.288,39.568-22.369,62.106c-1.487,19.531-22.031,29.026-27.404,46.901c-6.285,15.104-4.9,32.608-13.516,46.867
		c-5.778,9.833-13.178,19.429-23.518,24.734c-4.899,2.331-8.988-1.487-12.333-4.325c-53.524-49.3-105.561-100.323-153.644-154.928
		c7.096-7.738,16.659-13.246,21.93-22.572c19.868-34.423,36.522-102.762,19.869-163.241
		c-12.397-49.126-18.948-83.919-105.459-121.07c-53.767-21.692-123.77-20.476-178.176,9.36
		c-40.098-47.497-112.011-157.995-121.611-188.854c18.403-34.995,49.202-19.567,85.287-32.371c9.9-3.379,18.618-9.799,28.958-11.996
		C2735.064,28.119,2755.034,35.958,2774.531,31.092z"/>
	<path fill="#B40600" stroke="#B40600" stroke-width="1" d="M2888.404,269.685c4.46,1.25,8.955,2.568,13.516,3.92
		c-7.636,28.823-20.139,56.058-28.992,84.509c0.372-8.921-0.845-18.044-7.062-24.768
		C2872.793,311.923,2880.396,290.737,2888.404,269.685z"/>
	<path fill="#000001" stroke="#000001" stroke-width="1" d="M2757.061,308.443c6.724,1.926,13.989,3.616,19.125,8.853
		c35.276,33.255,40.209,44.323,56.734,55.754c2.5-0.845,7.468-2.5,9.968-3.345c0.574-15.713-0.169-31.526,2.568-47.07
		c4.832,5.001,7.738,11.353,10.475,17.706c3.312-2.332,6.555-4.697,9.934-6.995c10.007,10.823,6.703,26.106,6.049,43.049
		c5.744-0.169,11.522-0.304,17.334,0.169c-2.572,18.533-2.404,19.312-1.419,58.153c-13.876,19.372-22.075,21.945-27.573,37.372
		c8.278,5.407,18.044,6.691,27.775,6.454c10.919-13.266,9.672-11.231,17.436-22.876c0.845-8.38,0.135-16.827-0.946-25.106
		c2.906-5.305,7.062-9.664,12.468-12.435c0.642,1.892,1.859,5.711,2.467,7.637c3.634,37.012-1.654,46.574-31.526,74.913
		c-15.408-0.946-30.31-5.17-44.806-10.103c-9.866-2.737-15.78-11.556-22.132-18.754c-45.402-53.695-71.98-91.498-80.117-82.989
		c-35.354,30.304-295.654,343.696-317.392,384.297c0.525,18.204-0.036,13.71,36.527,244.675
		c-56.438,25.835-57.774,42.789-75.318,40.582c-22.741-1.081-45.718-2.771-68.189,1.825
		c-15.171-212.825-14.498-302.701-14.766-336.213c6.668-20.55,4.995-11.047,60.89-69.743
		c100.042-97.628,187.976-189.041,219.13-214.534C2617.358,410.139,2715.157,326.965,2757.061,308.443z"/>
	<path fill="#B40600" stroke="#B40600" stroke-width="1" d="M2887.695,422.89c35.885-8.211,70.317-21.761,106.169-30.276
		c0.541,4.595,1.588,9.292,1.182,14.023c-5.575,4.765-13.144,5.643-19.902,7.603c-18.517,3.987-36.764,9.698-55.687,11.523
		c-0.608-1.926-1.824-5.744-2.467-7.637c-5.406,2.771-9.563,7.13-12.468,12.435c-5.609,1.385-11.151,2.771-16.693,4.156
		C2887.729,430.73,2887.661,426.81,2887.695,422.89z"/>
	<path fill="#AA0D00" stroke="#AA0D00" stroke-width="1" d="M2860.257,472.089c3.311-9.292,9.563-16.895,16.658-23.586
		c9.428,2.669,18.956,5.001,28.553,7.164c-2.163,3.244-4.325,6.488-6.589,9.63c-9.596-3.278-19.429-5.846-29.397-7.299
		c4.494,8.177,11.252,14.699,18.551,20.545C2878.301,478.78,2868.535,477.496,2860.257,472.089z"/>
	<path stroke="#000000" stroke-width="1" d="M2682.757,547.982c11.86-4.021,20.781-14.158,32.979-17.199
		c31.323-2.838,60.586,11.725,91.234,15.341c15.273,2.568,27.843-10.948,43.116-8.786c27.54,3.422,29.755,52.011,34.837,70.081
		c11.132,7.188,37.789,4.368,72.176,34.263c30.006,29.263,39.366,73.224,36.088,113.806c3.312,17.47,12.773,33.452,15.374,51.361
		c2.062,28.114,7.603,57.038,1.082,84.915c-13.28,32.979-36.189,60.822-54.707,90.862c7.84,0.743,15.78,1.352,23.721,1.825
		c0.372,2.028,1.082,6.049,1.453,8.076c-20.809-0.267-19.635-0.932-31.56-1.047c-3.007,18.922-1.622,38.183,3.21,56.7
		c0.068,4.123,3.582,10.644-1.386,13.246c-12.975,2.534-26.322,0.98-39.433,1.994c-0.271,7.569-0.135,15.172,0.067,22.808
		c-5.541,0.71-11.015,1.453-16.456,2.298c-1.689,6.555-0.067,15.104-5.474,20.105c-9.326,2.264-19.835,0.608-28.282,5.744
		c-6.893,6.657-5.305,18.416-12.131,25.039c-29.235,12.443-70.42-40.73-109.176-53.017c-16.586,21.704-22.807,54.928-40.447,115.428
		c-17.03-1.385-33.959,1.791-50.922,2.602c-46.833,2.585-56.999,26.001-56.43,73.696c8.414,1.385,25.613-1.351,23.687,11.894
		c-7.873,22.167-31.999,34.703-37.98,58.153c-11.897,35.148,42.912,66.274,20.612,94.546c-11.387,14.867-2.095,33.25,4.46,48.05
		c9.799,19.97,0.709,43.184-11.759,59.708c-11.421,14.158-29.837,18.449-46.597,22.673c-6.454-13.178-18.179-22.673-26.187-34.804
		c-20.071-28.62-37.575-59.775-47.374-93.464c-7.468-38.014-12.975-77.143-7.434-115.766
		c10.818-129.988,108.794-259.831,122.557-286.981c15.712-30.986,32.27-61.971,41.933-95.491
		c-59.608-45.96-48.322-60.176-49.671-95.931c0.338-14.834-7.637-28.992-4.055-43.826c4.697-25.005,15.036-49.266,13.415-75.183
		c-3.65-17.571-19.497-30.952-18.179-49.841c1.047-30.513,26.39-51.598,37.676-78.258c3.278-8.887,8.583-16.794,15.983-22.775
		c12.401,0.372,25.511,0.068,37.203-4.764C2668.497,567.411,2669.376,551.564,2682.757,547.982 M2740.47,558.018
		c-2.804,13.313-12.367,25.208-10.306,39.4c2.196,24.937,16.084,48.083,35.919,63.188c-15.104-0.473-31.628-2.264-44.772,6.758
		c-13.178,8.92-24.6,20.646-33.622,33.689c-5.474,6.792,3.784,10.847,8.515,13.922c14.597,8.346,32.371,16.659,49.266,10.847
		c10.205-7.806,17.706-19.598,30.682-23.383c-3.582,16.827-14.293,31.019-18.517,47.61c-1.082,11.894,0.169,23.89-0.068,35.851
		c43.435,0.108,48.375-28.774,53.693-70.216c16.253,24.43,36.764,49.942,67.411,55.551c0.709-11.725,1.791-23.586-0.135-35.209
		c-3.919-16.422-18.652-26.221-27.843-39.4c17.909,6.353,37.474,3.413,54.335-4.528c11.252-8.177,20.814-18.517,32.81-25.748
		c-12.908-2.264-22.639-11.32-34.229-16.388c-11.928-1.994-24.093-0.406-36.054-0.98c6.69-23.45,6.082-48.422-1.183-71.669
		c-12.164,6.082-22.234,15.577-34.5,21.558c-10.542,4.866-15.071,15.915-20.68,25.275c-5.474-12.333-8.752-26.289-18.788-35.919
		C2778.586,572.548,2755.574,572.007,2740.47,558.018z"/>
	<path fill="#FC0202" stroke="#FC0202" stroke-width="1" d="M2740.47,558.018c15.104,13.989,38.115,14.53,51.936,30.208
		c10.036,9.63,13.314,23.586,18.788,35.919c5.609-9.36,10.137-20.409,20.68-25.275c12.266-5.981,22.335-15.476,34.5-21.558
		c7.265,23.248,7.873,48.219,1.183,71.669c11.962,0.574,24.126-1.014,36.054,0.98c11.59,5.068,21.321,14.124,34.229,16.388
		c-11.996,7.231-21.558,17.571-32.81,25.748c-16.861,7.941-36.426,10.88-54.335,4.528c9.191,13.178,23.924,22.977,27.843,39.4
		c1.927,11.624,0.845,23.484,0.135,35.209c-30.648-5.609-51.159-31.121-67.411-55.551c-5.268,41.058-10.015,70.324-53.693,70.216
		c0.236-11.962-1.014-23.957,0.068-35.851c4.224-16.591,14.935-30.783,18.517-47.61c-12.976,3.784-20.477,15.577-30.682,23.383
		c-16.895,5.812-34.669-2.5-49.266-10.847c-4.731-3.075-13.989-7.13-8.515-13.922c9.022-13.043,20.443-24.768,33.622-33.689
		c13.144-9.022,29.667-7.231,44.772-6.758c-19.835-15.104-33.723-38.251-35.919-63.188
		C2728.103,583.225,2737.666,571.331,2740.47,558.018 M2797.644,669.627c-3.548,13.246,11.894,22.808,22.876,15.881
		c6.386-2.839,5.237-10.306,5.778-15.949C2817.242,663.342,2806.699,663.747,2797.644,669.627z"/>
	<path fill="#0F0001" stroke="#0F0001" stroke-width="1" d="M2797.644,669.627c9.055-5.88,19.598-6.285,28.654-0.068
		c-0.541,5.643,0.608,13.111-5.778,15.949C2809.538,692.435,2794.095,682.873,2797.644,669.627z"/>
	<path fill="#BA0301" stroke="#BA0301" stroke-width="1" d="M2460.011,1017.802c18.551-3.852,40.684-4.595,54.977,10.103
		c21.22,21.795,26.525,53.997,27.37,83.293c-37,67.952-72.717,139.554-79.238,217.914c-12.342,86.019,27.563,131.962-4.359,163.714
		c-10.88,11.691-24.092,29.736-42.17,25.478c-11.826-9.833-5.406-33.723-22.504-39.163c-23.653-5.001-47.34,3.007-70.824,5.305
		c-51.055,3.553-40.828-22.948-40.21-48.422c3.784-17.773-10.441-34.601-27.134-38.453c-8.988-0.845-17.165,3.852-25.41,6.589
		c-16.287-28.925-37.744-58.525-35.176-93.43c8.279-14.327,24.566-21.355,33.114-35.21c7.197-19.666-4.967-39.061-12.536-56.632
		c10.239-16.321,26.458-28.587,33.52-46.901c3.244-7.67,1.993-16.084,0.169-23.89c-1.427-74.862,29.7-77.582,66.905-87.889
		c22.471-4.595,45.448-2.906,68.189-1.825c10.475,1.318,18.483-6.454,26.322-12.131
		C2425.782,1034.291,2442.812,1025.675,2460.011,1017.802 M2426.491,1051.66c-12.705,7.738-23.485,22.606-40.076,20.173
		c-31.222-3.075-63.492-2.162-93.227,8.65c-18.044,6.488-28.586,25.41-29.904,43.826c-2.027,19.97,6.015,41.461-4.832,60.011
		c-5.744,14.327-20.68,23.349-25.038,38.014c5.373,16.422,12.941,32.979,9.157,50.787c-1.859,20.747-26.323,26.83-33.689,44.401
		c-1.893,13.043,4.629,25.241,9.664,36.865c5.069,10.272,9.123,21.862,18.146,29.499c11.421,2.095,24.565-1.791,34.533,5.846
		c38.056,26.25,20.121,41.333,26.052,78.9c8.346,2.061,16.963,4.19,25.647,2.737c25.275-4.156,51.733-10.306,77.109-4.055
		c16.523,5.778,16.659,25.748,28.012,36.426c10.712-7.569,19.193-17.74,26.593-28.451c13.067-17.812-14.295-72.414-4.697-146.785
		c6.454-74.98,37.676-145.028,73.629-210.175c9.664-15.442,3.21-34.23-1.115-50.314c-4.73-16.591-14.597-35.412-33.317-38.453
		C2465.891,1026.013,2445.177,1039.833,2426.491,1051.66z"/>
	<path fill="#FE0000" stroke="#FE0000" stroke-width="1" d="M2426.491,1051.66c18.686-11.827,39.399-25.647,62.647-22.099
		c18.72,3.041,28.587,21.862,33.317,38.453c4.325,16.084,10.779,34.871,1.115,50.314c-78.267,141.821-84.638,223.171-66.297,328.475
		c0.743,9.36,3.413,20.24-2.636,28.485c-7.4,10.711-15.881,20.882-26.593,28.451c-11.354-10.678-11.489-30.648-28.012-36.426
		c-25.377-6.251-51.834-0.101-77.109,4.055c-8.684,1.453-17.301-0.676-25.647-2.737c-5.898-37.353,12.062-52.611-26.052-78.9
		c-9.968-7.637-23.112-3.751-34.533-5.846c-9.022-7.637-13.077-19.227-18.146-29.499c-5.035-11.624-11.556-23.822-9.664-36.865
		c7.366-17.571,31.83-23.653,33.689-44.401c3.784-17.807-3.784-34.364-9.157-50.787c4.359-14.665,19.294-23.687,25.038-38.014
		c10.847-18.551,2.805-40.041,4.832-60.011c1.318-18.416,11.861-37.338,29.904-43.826c29.736-10.813,62.005-11.725,93.227-8.65
		C2403.007,1074.265,2413.786,1059.398,2426.491,1051.66z"/>
	<path fill="#BA0303" stroke="#BA0303" stroke-width="1" d="M2795.616,1191.044c18.044-6.082,32.54-20.477,51.834-23.416
		c21.761-4.9,44.603,7.772,55.45,26.458c7.165,20.773-3.684,55.66,16.76,57.004c27.539,3.616,55.484-2.264,83.056,1.149
		c27.167,11.522,52.003,43.42,37.507,73.629c-7.197,17.706-23.315,29.6-32.54,45.651c12.165,30.479-4.021,60.856-14.293,89.24
		c-5.069,20.781-11.32,43.927-30.614,56.159c-35.987,23.721-81.84,14.496-121.273,27.505c-14.462,5.677-16.726,22.808-20.95,35.818
		c-16.084-3.548-35.243-15.611-50.618-5.305c-4.229,19.383-6.015,134.355,68.358,210.817
		c82.337,86.667,221.031,101.052,340.606,98.229c6.015-0.743,13.516,0.541,17.943-4.663c9.968,5.001,20.882,3.244,31.357,1.115
		c14.091-0.236,28.452-0.473,42.035,4.123c13.69,22.315,16.934,21.158,14.192,84.678c-0.811,13.989-8.312,26.221-11.353,39.704
		c31.256,5.981,64.371,1.994,93.633-10.441c68.059-32.605,100.427-81.323,125.902-75.285
		c59.366,10.991,83.245,79.845,84.341,140.635c1.149,26.762-7.062,52.544-12.367,78.495c-8.11,32.574-18.416,67.614-45.313,89.849
		c-28.586,23.045-48.083,58.322-84.036,71.23c-8.988,4.122-21.153,3.886-26.491,13.415c-0.338-1.284-0.98-3.852-1.318-5.136
		c-16.49,3.143-32.81,7.366-49.604,8.481c-11.962,1.622-24.532,0.946-35.885,5.508c-11.793,6.893-19.328,18.99-30.513,26.694
		c-29.676,21.973-35.903,3.243-60.045,78.495c-30.595,95.381-31.361,185.959-137.695,227.408
		c-15.341,6.555-32.168,9.191-46.901,17.064c-27.288,14.669-51.434,46.915-60.586,84.577
		c-23.036,101.544,34.162,102.36,20.917,146.481c-9.732,27.156-65.285,15.556-117.793,27.911
		c-30.313,6.842-30.233,53.456-52.713,75.082c-25.274,19.025-83.638-0.471-112.792-15.983c8.684-17.976,23.788-33.655,25.816-54.233
		c1.588-8.651-8.684-10.678-14.969-11.759c-17.47-1.723-37.169-3.988-52.206,7.028c-41.358,23.021-19.208,74.963-16.084,129.687
		c2.915,50.869-27.675,66.714-71.399,87.415c-18.483-15.78-35.074-35.547-58.896-43.285c-36.41-12.701-64.451,35.285-58.728,70.048
		c7.102,45.128,31.884,82.734-11.624,176.486c-39.508,82.198-115.016,162.575-201.424,133.167
		c-121.406-39.713-304.999-88.947-417.276-29.026c-39.94,20.714-68.493,59.843-79.171,103.196
		c-9.461,33.587-8.549,68.831-7.164,103.364c-5.757,215.775-1175.717,422.621-1596.117,131.512
		C83.424,3742.402,0.463,3630.665,0.518,3533.758c-1.2-80.389,56.71-145.125,131.039-181.758
		c306.583-159.949,1091.769-335.058,1153.599-663.37c143.162-794.954,1334.742-892.201,1356.071-909.634
		c6.399-32.324-61.926-134.326-97.113-205.85c16.76-4.224,35.176-8.515,46.597-22.673c12.469-16.524,21.558-39.737,11.759-59.708
		c-6.555-14.8-15.848-33.182-4.46-48.05c22.312-28.286-32.531-59.334-20.612-94.546c5.981-23.45,30.107-35.986,37.98-58.153
		c1.926-13.245-15.273-10.509-23.687-11.894c-0.569-47.656,9.607-71.112,56.43-73.696c16.963-0.811,33.892-3.987,50.922-2.602
		c8.785,1.588,17.402,5.846,26.525,4.899c14.294-3.615,20.984-17.909,25.208-30.681
		C2764.427,1183.746,2778.822,1195.809,2795.616,1191.044 M2795.413,1204.256c-12.198,2.872-23.822-3.311-35.682-4.933
		c-14.125,8.616-28.384,27.134-46.834,19.565c-18.889-6.522-38.96-2.906-58.355-2.298c-13.888,0.811-30.04,1.96-39.636,13.415
		c-8.515,9.461-8.886,23.113-6.724,35.041c4.596,1.216,9.258,2.5,13.955,3.818c4.359,7.366,9.901,15.713,6.082,24.599
		c-5.508,25.207-34.196,36.358-39.974,61.194c0.54,18.281,13.888,32.371,21.22,48.286c5.609,13.448,11.387,29.837,1.926,43.049
		c-13.448,19.226,5.981,38.419,8.583,57.646c1.048,34.263-21.152,69.574-55.483,78.056c6.521,16.726,16.726,31.56,25.039,47.407
		c41.739,76.626,93.275,157.464,47.306,166.147c-51.497,6.589-102.452,16.997-153.543,26.018
		c-502.034,95.316-1051.368,328.149-1173.401,817.049c-10.036,32.709-11.827,67.716-25.309,99.445
		c-130.994,343.75-1071.972,520.715-1220.369,678.846c-10.61,13.111-23.079,25.106-30.513,40.514
		c-42.027,79.719-12.232,154.069,37.271,227.645c51.797,69.103,94.722,106.469,195.24,152.935
		c493.449,211.324,1490.607,5.847,1481.095-176.791c-21.512-276.855,236.437-279.713,502.056-191.422
		c27.843,10.644,60.011,15.983,88.362,4.122c72.486-28.532,130.398-132.782,137.492-190.205
		c7.366-34.095-4.122-67.986-10.374-101.202c-5.542-30.04,7.873-61.768,31.425-80.657c11.185-9.055,26.627-8.954,40.21-7.13
		c24.667,5.44,40.852,27.134,61.397,39.602c18.821-4.562,35.277-17.301,47.171-32.337c16.818-28.945,3.701-52.531-0.845-115.36
		c-2.84-47.372,35.497-80.992,86.334-72.615c10.137,1.757,22.909,1.757,28.62,12.063c15.76,22.876-20.402,54.429-10.847,64.641
		c23.894,9.168,71.464,24.045,85.219,2.467c12.604-20.375,15.645-47.036,35.547-62.58c16.895-13.415,39.366-11.658,59.471-14.969
		c16.625-2.703,33.554-2.433,50.28-4.292c10.239-0.709,18.956-11.218,16.05-21.423c-6.697-26.255-27.376-35.165-27.877-92.214
		c2.5-32.979,10.61-66.6,30.073-93.903c15.543-20.612,35.007-40.075,60.518-47.34c114.003-30.711,126.275-96.063,160.47-228.625
		c7.299-20.781,13.381-42.914,27.1-60.519c10.61-14.361,29.938-16.523,42.373-28.62c11.151-10.171,20.781-24.329,36.865-26.694
		c58.391-9.188,108.998-10.049,139.791-43.218c53.543-60.375,60.859-38.467,86.199-123.098
		c6.555-30.175,16.185-60.552,12.772-91.808c-2.94-31.796-8.616-65.722-30.276-90.592c-10.745-14.935-28.147-25.376-46.563-26.627
		c-26.258,7.583-80.547,71.502-145.298,84.138c-23.417,4.258-48.624,8.954-71.433-0.304c-7.603-2.804-12.265-11.657-8.312-19.159
		c12.849-27.602,22.642-96.942-5.406-105.932c-29.856-3.609-331.286,40.194-447.011-123.74
		c-38.96-53.659-55.585-121.645-53.456-187.367c0.446-38.454,35.569-23.007,54.436-23.45c6.758-6.082,9.056-15.645,15.476-22.099
		c42.393-29.777,133.699,4.389,150.975-65.486c7.197-26.187,20.646-50.821,22.876-78.224c0.574-10.036-10.914-19.058-5.238-29.026
		c11.353-17.774,31.155-30.614,36.189-52.105c4.798-21.964-14.158-40.041-31.83-48.962c-28.553-3.075-57.984,6.454-86.097-1.994
		c-9.225-2.703-14.327-11.793-17.199-20.207c-5.136-13.651-1.385-28.62-4.866-42.475c-7.231-10.846-18.483-20.882-32.506-18.99
		C2833.664,1178.576,2817.951,1200.979,2795.413,1204.256z"/>
	<path fill="#FE0000" stroke="#FE0000" stroke-width="1" d="M2795.413,1204.256c22.538-3.278,38.251-25.681,62.208-23.282
		c14.023-1.892,25.275,8.144,32.506,18.99c3.48,13.854-0.27,28.823,4.866,42.475c2.872,8.414,7.974,17.503,17.199,20.207
		c28.113,8.448,57.544-1.081,86.097,1.994c17.672,8.921,36.629,26.998,31.83,48.962c-5.035,21.491-24.836,34.331-36.189,52.105
		c-5.677,9.968,5.812,18.99,5.238,29.026c-2.23,27.404-15.679,52.037-22.876,78.224c-17.268,69.841-108.557,35.691-150.975,65.486
		c-6.42,6.454-8.718,16.017-15.476,22.099c-18.77,0.44-53.99-15.033-54.436,23.45c-2.129,65.722,14.496,133.708,53.456,187.367
		c115.647,163.823,416.328,120.031,447.011,123.74c28.101,9.007,18.216,78.415,5.406,105.932
		c-3.953,7.501,0.709,16.354,8.312,19.159c22.809,9.259,48.016,4.562,71.433,0.304c64.754-12.636,119.037-76.554,145.298-84.138
		c18.416,1.25,35.818,11.691,46.563,26.627c21.66,24.87,27.336,58.795,30.276,90.592c3.413,31.256-6.217,61.633-12.772,91.808
		c-25.372,84.739-32.815,62.903-86.199,123.098c-30.936,33.323-82.556,34.212-139.791,43.218
		c-16.084,2.366-25.714,16.523-36.865,26.694c-12.435,12.097-31.763,14.26-42.373,28.62c-13.719,17.605-19.801,39.737-27.1,60.519
		c-33.903,131.43-45.751,197.721-160.47,228.625c-25.511,7.265-44.975,26.728-60.518,47.34
		c-19.463,27.302-27.573,60.924-30.073,93.903c0.501,57.111,21.171,65.924,27.877,92.214c2.906,10.205-5.812,20.713-16.05,21.423
		c-16.726,1.859-33.655,1.589-50.28,4.292c-20.105,3.311-42.575,1.554-59.471,14.969c-19.903,15.543-22.944,42.204-35.547,62.58
		c-13.755,21.577-61.321,6.702-85.219-2.467c-9.617-10.277,26.651-41.699,10.847-64.641c-5.711-10.306-18.483-10.306-28.62-12.063
		c-51.001-8.404-89.167,25.37-86.334,72.615c4.543,62.791,17.657,86.424,0.845,115.36c-11.894,15.037-28.35,27.776-47.171,32.337
		c-20.545-12.468-36.73-34.162-61.397-39.602c-13.584-1.825-29.026-1.926-40.21,7.13c-23.552,18.889-36.967,50.618-31.425,80.657
		c12.632,67.121,28.882,88.658-22.978,189.698c-24.971,41.866-57.443,83.327-104.141,101.709
		c-28.35,11.86-60.519,6.522-88.362-4.122c-265.077-88.111-523.592-85.736-502.056,191.422
		c2.524,48.471-57.191,79.784-94.613,104.108c-341.647,182.957-1268.417,255.1-1533.504-23.788
		c-43.685-41.395-95.821-118.406-103.601-183.853c-5.913-34.263,2.061-69.811,18.112-100.256
		c7.434-15.408,19.903-27.404,30.513-40.514c148.896-158.663,1089.26-334.795,1220.369-678.846
		c20.538-48.335,28.316-241.834,213.014-445.626c21.423-25.816,46.563-48.151,70.115-71.94
		c114.922-98.201,94.289-73.412,134.755-105.088c226.84-152.252,513.65-243.115,780.826-293.84
		c51.091-9.022,102.046-19.429,153.543-26.018c59.881-11.311-51.405-159.846-72.345-213.554
		c34.331-8.481,56.531-43.792,55.483-78.056c-2.602-19.226-22.031-38.419-8.583-57.646c9.461-13.212,3.683-29.6-1.926-43.049
		c-7.332-15.916-20.68-30.006-21.22-48.286c5.778-24.836,34.466-35.987,39.974-61.194c3.818-8.887-1.723-17.233-6.082-24.599
		c-4.697-1.318-9.36-2.602-13.955-3.818c-2.162-11.928-1.791-25.579,6.724-35.041c9.597-11.455,25.749-12.604,39.636-13.415
		c19.396-0.608,39.467-4.224,58.355,2.298c18.45,7.569,32.709-10.948,46.834-19.565
		C2771.591,1200.945,2783.215,1207.128,2795.413,1204.256z"/>
	<path stroke="#000000" stroke-width="1" d="M3040.224,1325.868c87.932,24.669,270.857,88.516,347.837,139.959
		c8.549,4.595,6.859,15.577,8.312,23.788c4.211,114.167-21.093,318.382-58.66,432.752c-5.542,25.647-33.52,34.5-53.287,46.867
		c2.722-63.05-0.147-61.785-14.192-84.678c9.495-4.798,19.632-8.651,28.35-14.868c18.866-49.064-4.538-167.847-0.777-238.593
		c0.879-29.026,4.933-57.849,5.237-86.909c-65.384-18.382-129.755-40.075-195.105-58.457
		c-37.473-11.523-76.569-15.679-114.549-24.971c10.272-28.384,26.458-58.761,14.293-89.24
		C3016.909,1355.468,3033.027,1343.574,3040.224,1325.868z"/>
	<path fill="#040101" stroke="#040101" stroke-width="1" d="M3196.842,1879.318c4.021-9.157,8.583-18.078,14.462-26.188
		c1.791,3.21,3.582,6.454,5.441,9.799c5.068-3.481,10.373-6.556,16.016-9.157c-1.183,8.921-3.075,17.74-4.562,26.661
		C3217.724,1882.562,3206.81,1884.319,3196.842,1879.318z"/>
	<path stroke="#000000" stroke-width="1" d="M3357.819,2320.18c16.794-1.115,33.114-5.339,49.604-8.481
		c0.338,1.284,0.98,3.852,1.318,5.136c-2.924,23.391-91.727,421.054-160.909,598.155c-18.567,47.831-45.799,112.141-69.709,157.327
		c-21.322-18.99-46.935-32.337-68.594-50.652c-2.555-19.594,22.344-37.822,19.768-81.536c1.993-0.169,5.947-0.507,7.94-0.642
		c64.92-178.267,54.209-226.083,67.885-413.356c13.463-50.528,30.073-121.286,48.219-147.63c9.09-13.246,25.714-16.963,38.082-26.12
		c11.184-7.704,18.719-19.801,30.513-26.694C3333.287,2321.126,3345.857,2321.802,3357.819,2320.18z"/>
	<path stroke="#000000" stroke-width="1" d="M2682.453,2934.453c15.037-11.016,34.736-8.752,52.206-7.028
		c6.285,1.081,16.557,3.108,14.969,11.759c-2.028,20.578-17.132,36.257-25.816,54.233c28.98,15.42,87.503,35.019,112.792,15.983
		c16.017-15.408,19.024-38.825,30.445-57.173c12.326,389.519,7.853,547.287-30.783,731.559
		c-26.221-12.503-55.146-18.821-80.826-32.135c-1.25-20.308,6.048-40.21,3.919-60.519c-0.473-7.636-2.467-15.51,0.507-22.842
		c9.279-32.033,17.267-156.912-13.584-294.719C2728.686,3189.999,2688.088,2995.652,2682.453,2934.453z"/>
	<path fill="#B90303" stroke="#B90303" stroke-width="1" d="M3031.743,2964.425c23.416-27.1,64.336-34.297,97.552-24.295
		c2.575,43.703-22.323,61.946-19.768,81.536c21.66,18.314,47.273,31.661,68.594,50.652c2.703,2.332,3.278,6.386,1.385,9.563
		c-4.494,9.461-8.718,19.801-17.233,26.458c-21.119-17.909-39.366-40.515-64.844-52.375c-19.429,5.323-29.205,67.771-40.042,120.496
		c-6.42,30.681-6.454,64.201,9.225,92.214c0.777,8.008-1.521,16.354,1.352,24.194c10.663,27.856,48.224,49.666,24.532,75.386
		c-31.996-14.865-30.92-4.18-123.233-102.418c1.791-3.244,3.615-6.42,5.71-9.393c12.164-15.679,16.861-35.277,24.836-53.085
		c26.506-69.119,42.81-98.205,32.202-149.454c-12.867,9.913-38.549,46.93-63.627,76.366c-7.738-4.562-12.502-12.063-16.388-19.835
		c21.964-26.12,43.556-53.727,54.47-86.503C3013.732,3003.689,3018.091,2981.591,3031.743,2964.425 M3016.875,3042.548
		c7.332-1.115,14.766-1.656,22.234-1.588c7.772,15.51,8.955,33.013,8.211,50.111c-0.102,30.884-15.003,58.761-24.599,87.449
		c-10.34,29.566-26.998,57.207-33.081,88.091c8.549,17.301,26.525,27.539,38.893,42.069c18.112,15.476,33.689,37.676,58.592,42.069
		c-5.643-20.071-23.991-33.013-31.222-52.273c-3.108-10.712-1.858-22.133-5.102-32.709c-15.236-49.422-13.292-52.001-1.385-114.616
		c7.468-34.331,12.165-70.723,30.884-101.134c8.076-1.453,16.726-4.595,24.768-1.013c22.605,8.549,36.021,30.344,56.463,42.17
		c2.23-6.116,5.271-14.632-0.98-19.362c-19.362-16.05-41.63-28.316-60.654-44.806c-0.202-8.313-0.406-16.591-0.608-24.802
		c8.684-16.253,15.881-33.689,18.078-52.138C3029.993,2941.368,3036.409,2997.328,3016.875,3042.548z"/>
	<path fill="#FC0101" stroke="#FC0101" stroke-width="1" d="M3117.367,2950.064c-2.196,18.449-9.394,35.885-18.078,52.138
		c-9.36,11.726-5.778,25.951,3.176,36.663c-8.312,1.622-17.131,3.649-22.166,11.151c-18.72,30.411-23.417,66.803-30.884,101.134
		c-11.949,62.839-13.775,65.44,1.385,114.616c3.244,10.576,1.994,21.998,5.102,32.709c7.231,19.26,25.579,32.202,31.222,52.273
		c-24.904-4.393-40.481-26.593-58.592-42.069c-12.367-14.53-30.344-24.768-38.893-42.069c6.083-30.884,22.741-58.525,33.081-88.091
		c9.596-28.688,24.498-56.565,24.599-87.449c0.743-17.098-0.439-34.601-8.211-50.111c-7.468-0.068-14.902,0.473-22.234,1.588
		C3036.412,2997.321,3029.997,2941.368,3117.367,2950.064z"/>
	<path fill="#E80507" stroke="#E80507" stroke-width="1" d="M3102.465,3038.865c-8.954-10.712-12.536-24.937-3.176-36.663
		c0.202,8.211,0.406,16.49,0.608,24.802c19.024,16.49,41.292,28.756,60.654,44.806c6.251,4.73,3.21,13.246,0.98,19.362
		c-20.443-11.827-33.858-33.622-56.463-42.17c-8.042-3.582-16.692-0.439-24.768,1.013
		C3085.334,3042.514,3094.153,3040.487,3102.465,3038.865z"/>
	<path fill="#140101" stroke="#140101" stroke-width="1" d="M3026.032,3058.936c1.926-1.791,3.92-3.447,5.981-5.035
		c10.61,51.259-5.707,80.363-32.202,149.454c-7.974,17.808-12.671,37.406-24.836,53.085
		C3010.954,3158.911,3040.886,3116.742,3026.032,3058.936z"/>
	<path fill="#010101" stroke="#010101" stroke-width="1" d="M3097.431,3055.963c25.478,11.86,43.725,34.466,64.844,52.375
		c-15.543,22.442-58.665,111.358-95.66,160.335c-15.679-28.012-15.645-61.532-9.225-92.214
		C3068.119,3124.254,3077.976,3061.293,3097.431,3055.963z"/>
	<path fill="#140101" stroke="#140101" stroke-width="1" d="M2961.763,3136.722c-8.481-5.71-15.206-16.219-9.765-26.289
		c3.886,7.772,8.65,15.273,16.388,19.835C2966.122,3132.329,2963.891,3134.491,2961.763,3136.722z"/>
	<path fill="#140101" stroke="#140101" stroke-width="1" d="M2969.264,3265.834c92.351,98.279,91.277,87.572,123.233,102.418
		c-8.988,6.623-19.058-1.487-27.843-4.292c-21.356-11.455-37.947-29.702-55.552-45.921c-14.09-14.598-29.701-28.148-40.954-45.043
		C2968.42,3271.207,2968.96,3267.625,2969.264,3265.834z"/>
	<path fill="#B90303" stroke="#B90303" stroke-width="1" d="M2681.202,3597.283c20.308-20.477,50.246-29.702,78.663-28.992
		c-2.973,7.333-0.979,15.206-0.507,22.842c2.129,20.308-5.17,40.211-3.919,60.519c25.681,13.313,54.605,19.632,80.826,32.135
		c8.346,10.948,1.487,26.795-0.574,39.332c-29.6-8.583-54.132-31.425-85.49-33.858c-13.313,29.769-6.386,63.154-6.42,94.613
		c0.744,41.629,5.846,87.246,35.345,119.246c3.447,7.164,2.872,15.915,7.501,22.707c12.637,17.03,34.128,25.343,45.211,43.758
		c-0.203,6.792-0.709,13.584-1.149,20.477c-46.415,4.336-102.703-40.8-142.73-61.904c5.069-57.511,17.638-114.65,15.881-172.634
		c2.297,8.245,3.007,16.794,3.75,25.376c0.338-26.052-2.298-54.842-19.159-75.927c-17.469,28.451-25.072,61.971-43.184,90.152
		c-5.069-3.886-10.103-7.771-15.104-11.523c1.564-23.571,31.494-55.712,31.729-125.057
		C2663.158,3637.156,2664.544,3612.895,2681.202,3597.283 M2672.924,3695.241c8.042-4.461,18.585-7.333,25.174,1.318
		c30.067,42.531,18.599,103.123,8.886,183.312c-2.669,13.719-5.271,27.573-4.224,41.697c92.435,58.677,102.769,54.421,114.313,54.47
		c-2.957-16.001-29.206-22.373-43.387-47.34c-4.089-9.495-5.609-20.173-12.671-28.08c-18.145-22.876-24.363-52.442-27.269-80.826
		c-5.145-66.637-14.438-142.918,22.47-144.487c18.314,6.555,35.885,15.341,53.22,24.261c5.339,2.906,11.657,1.96,17.605,2.332
		c-1.385-4.595-1.183-10.982-7.096-11.759c-19.869-7.366-39.061-16.76-59.708-21.694c-35.943-7.905-6.846-50.988-14.969-87.078
		C2656.943,3596.277,2680.618,3650.251,2672.924,3695.241z"/>
	<path fill="#FC0101" stroke="#FC0101" stroke-width="1" d="M2745.269,3581.369c8.123,36.09-20.975,79.172,14.969,87.078
		c20.646,4.933,39.839,14.327,59.708,21.694c5.913,0.777,5.711,7.163,7.096,11.759c-5.947-0.372-12.266,0.575-17.605-2.332
		c-17.334-8.92-34.905-17.706-53.22-24.261c-37.124,1.578-27.525,79.017-22.47,144.487c2.906,28.384,9.124,57.95,27.269,80.826
		c7.062,7.907,8.583,18.584,12.671,28.08c14.217,25.03,40.418,31.275,43.387,47.34c-7.975-0.034-16.084-0.338-23.383-3.616
		c-31.797-14.124-61.6-32.236-90.93-50.854c-1.047-14.125,1.555-27.979,4.224-41.697c9.934-82.019,20.9-141.178-8.886-183.312
		c-6.589-8.651-17.132-5.779-25.174-1.318C2680.628,3650.197,2656.934,3596.278,2745.269,3581.369z"/>
	<path fill="#010001" stroke="#010001" stroke-width="1" d="M2750.202,3689.26c31.357,2.433,55.889,25.275,85.49,33.858
		c-3.244,4.764-8.515,8.38-10.306,14.09c-13.516,55.754-26.323,112.015-46.259,165.91c-29.499-32-34.601-77.616-35.345-119.246
		C2743.815,3752.415,2736.889,3719.03,2750.202,3689.26z"/>
	<path fill="#140101" stroke="#140101" stroke-width="1" d="M2645.25,3795.125c18.112-28.181,25.714-61.701,43.184-90.152
		c16.861,21.085,19.497,49.875,19.159,75.927c-2.694-31.104-11.991-56.063-19.26-67.513c-14.834,30.58-27.134,62.343-41.292,93.261
		c-9.259-4.359-18.179-11.657-16.895-23.045C2635.146,3787.354,2640.181,3791.24,2645.25,3795.125z"/>
	<path fill="#140101" stroke="#140101" stroke-width="1" d="M2687.96,3928.157c40.215,21.203,96.282,66.243,142.73,61.904
		c0.439-6.893,0.946-13.685,1.149-20.477c0.676,9.799,4.494,21.66-2.061,30.208c-16.152,2.602-32.979-1.825-47.577-8.853
		c-28.485-13.347-55.855-28.992-82.347-45.921C2693.941,3940.965,2685.359,3936.809,2687.96,3928.157z"/>
</g>
<path d="M7272.209,2063.853c-1.1-60.79-24.98-129.65-84.339-140.64c-37.207-8.82-101.935,108.228-219.54,85.73
	c3.04-13.49,10.54-25.72,11.35-39.71c19.807-12.39,47.756-21.237,53.29-46.87c46.848-142.613,75.256-443.139,50.35-456.539
	c-76.979-51.44-259.91-115.29-347.839-139.96c14.49-30.21-10.34-62.1-37.51-73.62c-27.57-3.42-55.51,2.46-83.05-1.15
	c-20.45-1.35-9.6-36.23-16.76-57.01c-10.85-18.68-33.689-31.36-55.449-26.46c-19.3,2.94-33.79,17.34-51.84,23.42
	c-16.79,4.77-31.19-7.3-44.84-15c-14.52,43.936-36.643,28.509-51.73,25.78c17.62-60.43,23.841-93.672,40.45-115.43
	c38.75,12.29,79.94,65.46,109.17,53.02c6.83-6.62,5.24-18.38,12.13-25.04c8.45-5.13,18.96-3.48,28.28-5.74
	c5.41-5,3.79-13.55,5.479-20.11c5.44-0.84,10.91-1.59,16.45-2.3c-0.2-7.63-0.33-15.23-0.06-22.8c13.11-1.02,26.46,0.54,39.43-2
	c4.97-2.6,1.45-9.12,1.39-13.24c-4.84-18.52-6.22-37.78-3.21-56.7c11.92,0.11,10.75,0.78,31.561,1.04
	c-0.37-2.02-1.08-6.04-1.46-8.07c-7.94-0.48-15.88-1.08-23.72-1.83c63.908-103.661,61.174-72.826,53.63-175.77
	c-2.6-17.91-12.06-33.9-15.38-51.37c3.28-40.58-6.08-84.54-36.08-113.799c-34.39-29.9-61.05-27.08-72.18-34.26
	c-5.08-18.07-7.3-66.66-34.84-70.09c-15.27-2.16-27.84,11.36-43.11,8.79c-30.65-3.62-59.91-18.18-91.24-15.34
	c-12.19,3.04-21.12,13.18-32.979,17.2c-13.38,3.58-14.26,19.43-22.77,28.08c-11.7,4.83-24.81,5.14-37.21,4.76
	c-7.4,5.99-12.7,13.89-15.98,22.78c-11.29,26.66-36.63,47.74-37.68,78.26c-1.311,18.89,14.53,32.27,18.18,49.84
	c1.62,25.91-8.71,50.18-13.41,75.18c-3.58,14.83,4.39,28.99,4.05,43.83c1.35,35.75-9.93,49.97,49.67,95.93
	c-18.905,65.6-70.978,141.915-84.729,165.359c-0.214-0.182-0.446-0.341-0.689-0.481c0.059-0.109,0.118-0.219,0.178-0.328
	c-0.85-29.29-6.16-61.49-27.37-83.29c-14.3-14.7-36.43-13.95-54.979-10.1c-36.57-230.969-36-226.469-36.53-244.679
	c21.74-40.6,282.039-353.989,317.389-384.289c12.521-13.089,79.883,95.524,102.25,101.74c14.428,4.905,29.252,9.115,44.581,10.083
	c0.125,0.078,0.256,0.144,0.393,0.196c6.348,6.968,198.034,217.95,236.566,238.691c30.28-7.23,48.22-38.56,51.26-67.85
	c0.85-16.59,12.27-29.06,22.17-41.26c15.81-18.38,8.31-45.38,21.86-65.01c8.01-15.68,18.99-30.89,19.77-49.14
	c0.77-16.38,3.71-32.5,8.28-48.21c13.75-40.62-4.06-82.59,2.43-123.88c2.13-13.65,4.05-27.44,2.77-41.29
	c-11.52-17.94-21.73-37.85-22.1-59.64c-1.25-25.82-24.97-41.56-34.13-64.24c-6.72-12.8-11.28-26.52-16.42-39.97
	c-3.84-13.29-29.49-15.59-52.27-42.07c-9.02-10.1-15.78-22.64-27.58-29.87c-18.68-11.32-40.17-16.42-60.31-24.29
	c-9.77-3.72-18.01-10.38-27.64-14.26c-16.69,1.79-33.89,12.06-50.48,4.35c-15.88-7.9-30.58-18.58-48.15-22.6
	c-19.57-5.85-40.009-2.6-59.95-1.62c-12.94,0.77-25.27-3.79-37.17-8.15c-60.3,31.691-61.984,11.318-100.02,17.71
	c-18.28,3.45-33.619,15.88-52.239,18.21c-13.35,2.27-27.27-0.2-40.34,3.52c-16.19,7.16-28.79,20.03-42.38,31.05
	c12.569,42.189,142.441,228.437,161.348,243.828c0.107,0.181,0.231,0.343,0.363,0.5c-46.566,26.896-129.753,97.578-161.98,124.361
	c-31.15,25.49-119.08,116.9-219.129,214.529c-55.89,58.7-54.22,49.19-60.89,69.74c0.27,33.51-0.4,123.39,14.77,336.219
	c-37.2,10.3-68.33,13.02-66.899,87.88c7.772,33.357-17.409,44.836-33.69,70.8c7.57,17.57,19.73,36.96,12.53,56.63
	c-8.54,13.85-24.83,20.88-33.11,35.21c-2.57,34.9,18.89,64.5,35.18,93.43c8.24-2.74,16.42-7.44,25.41-6.59
	c63.976,14.758-16.41,92.71,67.34,86.87c23.48-2.3,47.17-10.3,70.82-5.3c17.1,5.44,10.68,29.33,22.51,39.16
	c18.08,4.26,31.29-13.79,42.17-25.48c13.8-13.72,14.17-30.11,11.15-51.23c3.16,16.557,17.685,53.506,48.009,96.75
	c8.01,12.13,19.74,21.63,26.19,34.8c35.127,71.403,103.519,173.528,97.12,205.85c-21.33,17.43-1212.907,114.68-1356.077,909.638
	c-61.829,328.309-847.008,503.419-1153.597,663.368c-235.432,116.037-106.619,351.031,33.02,445.019
	c420.399,291.109,1590.356,84.26,1596.116-131.51c-1.39-34.54-2.3-69.78,7.16-103.37c46.413-188.385,312.018-134.492,496.449-74.17
	c86.4,29.41,161.91-50.97,201.42-133.17c43.509-93.75,18.729-131.35,11.63-176.48c-5.73-34.77,22.31-82.75,58.72-70.05
	c23.83,7.74,40.42,27.5,58.9,43.28c43.72-20.7,74.31-36.54,71.4-87.41c-3.13-54.72-25.27-106.66,16.08-129.69
	c5.639,61.21,46.229,255.549,63.83,339.119c30.85,137.8,22.86,262.679,13.58,294.719c-28.41-0.71-58.35,8.51-78.66,28.99
	c-16.66,15.61-18.04,39.87-19.33,61.26c-0.331,95.49-60.27,126.702-14.83,148.11c14.16-30.92,26.46-62.69,41.29-93.27
	c5.18,8.17,11.4,23.21,15.51,42.45c1.901,64.348-16.36,152.783-16.36,175.399c0,6.63,7.21,10.24,12.37,13.79
	c77.822,49.708,106.712,58.506,129.92,54.77c6.56-8.55,2.74-20.41,2.07-30.21c-0.114,3.582-0.137,3.959-0.01,0
	c-11.08-18.41-32.57-26.73-45.21-43.76c-4.62-6.79-4.05-15.54-7.5-22.7c19.94-53.9,32.75-110.16,46.26-165.91
	c1.79-5.71,7.07-9.33,10.31-14.09c0-6.422,9.919-27.08,0.57-39.34c38.64-184.269,43.11-342.029,30.79-731.548
	c5.33-8.82,12.08-15.61,22.271-17.91c52.5-12.36,108.059-0.76,117.79-27.91c13.24-44.12-43.95-44.94-20.92-146.48
	c9.15-37.67,33.3-69.91,60.59-84.58c39.898-21.317,120.042-13.04,161.79-162.3c-1.17,4.47-2.32,8.85-3.45,13.08
	c-13.68,187.27-2.97,235.09-67.89,413.349c-1.99,0.14-5.94,0.48-7.94,0.65c-33.209-10-74.129-2.81-97.549,24.29
	c-28.347,35.656-6.292,58.675-79.75,146.01c-5.237,9.702,0.768,20.233,9.77,26.29c24.978-26.151,47.479-59.976,64.37-77.4
	c14.61,57.61-15.26,99.81-51.16,197.12c-2.09,2.97-3.92,6.15-5.71,9.39c-0.358,2.148-0.962,6.16-1.12,7.16
	c10.979,16.479,99.829,113.316,124.35,95.26c23.693-25.719-13.875-47.532-24.53-75.38c-2.87-7.84-0.57-16.19-1.35-24.2
	c37-48.98,80.119-137.89,95.659-160.33c0,0,0,0,0-0.01c8.52-6.65,12.74-16.99,17.23-26.45c3.638-6.088-2.011-10.116-3.39-11.33
	c0.67,0.58,1.34,1.17,2.01,1.76c124.328-234.927,228.638-739.657,230.62-755.478c5.34-9.52,17.5-9.29,26.49-13.41
	c35.95-12.91,55.45-48.19,84.04-71.23c26.89-22.24,37.2-57.28,45.31-89.85C7265.139,2116.393,7273.359,2090.613,7272.209,2063.853z
	 M6583.292,478.547c-7.3-5.85-14.06-12.37-18.55-20.55c9.96,1.46,19.78,4.02,29.37,7.3
	C6591.841,468.327,6589.591,470.887,6583.292,478.547z M6572.165,448.503c3.56-3.91,6.116-7.076,10.926-13.786
	c5.54-1.38,11.08-2.77,16.689-4.15c1.08,8.28,1.79,16.72,0.94,25.1c-9.589-2.16-19.12-4.49-28.549-7.16
	C6572.173,448.506,6572.162,448.503,6572.165,448.503z M6660.231,546.736c-24.43-15.58-45.52-36.12-65.15-57.31
	c-0.01,0.01-0.02,0.019-0.029,0.029c-0.065-0.083-0.146-0.151-0.217-0.228c7.051-7.316,12.004-13.51,15.306-19.908
	c1.001,0.221,61.851,17.239,76.68,22.708C6681.621,511.727,6674.691,531.767,6660.231,546.736z M6670.261,326.327
	c22.88,46.59,30.75,100.42,20.65,151.48c-25.38-6.69-50.99-12.33-76.37-18.82c-0.006,0.016-0.013,0.032-0.02,0.048
	c-0.154-0.056-0.306-0.115-0.466-0.156c2.123-8.738,2.053-18.901,0.655-33.112c10.888-1.053,67.325-12.052,75.59-19.13
	c0.41-4.73-0.64-9.42-1.18-14.02c-35.85,8.52-70.28,22.07-106.17,30.28c-0.107-0.046-0.53-21.194-0.53-21.33
	C6612.711,377.687,6639.431,349.457,6670.261,326.327z M6597.818,271.327c23.763,10.055,43.968,23.683,58.494,37.727
	c-1.005,0.986-62.333,59.689-71.801,67.513c-6.167-0.493-11.799-0.33-17.34-0.17c0.187-4.835,0.926-19.054,1.02-18.28
	c8.781-28.229,21.15-55.268,28.804-83.839C6597.715,273.394,6597.958,272.361,6597.818,271.327z M6584.998,266.388
	c-0.904,0.867-1.416,2.036-1.524,3.128c-0.446,0.685-0.62,1.439-0.574,2.186c-7.729,20.388-15.07,40.908-21.779,61.646
	c-3.38,2.3-6.62,4.67-9.93,7c-2.74-6.36-5.64-12.71-10.48-17.71c-2.73,15.55-1.99,31.36-2.56,47.07c-2.5,0.85-7.47,2.5-9.97,3.35
	c-6.4-39.284-14.758-78.356-20.18-117.63C6535.319,253.679,6561.563,258.214,6584.998,266.388z M6434.511,270.907
	c17.61-6.72,35.79-12.03,54.67-13.41c6.547,31.16,14.229,62.351,16.515,94.187c-0.072,0.062-0.134,0.139-0.202,0.208
	c-38.24-41.49-38.593-39.258-53.173-43.445C6445.907,296.198,6437.684,284.534,6434.511,270.907z M6923.46,1880.433
	c1.48-8.92,3.38-17.74,4.56-26.66c-5.64,2.6-10.95,5.67-16.02,9.16c-1.86-3.35-3.65-6.59-5.44-9.8
	c-5.88,8.11-10.439,17.03-14.46,26.18c2.757,1.379,1.594,0.807,0,0.01c-4.43,5.2-11.93,3.92-17.94,4.66
	c-119.579,2.82-258.27-11.56-340.609-98.23c-74.37-76.46-72.59-191.429-68.36-210.819c15.38-10.3,34.54,1.76,50.62,5.31
	c4.22-13.01,6.49-30.14,20.95-35.82c39.43-13.01,85.29-3.78,121.27-27.5c19.3-12.24,25.55-35.38,30.62-56.16c0,0,0,0,0-0.01
	c37.98,9.3,77.07,13.45,114.549,24.98c65.35,18.38,129.72,40.07,195.1,58.45c-0.3,29.06-4.36,57.89-5.24,86.91
	c-3.76,70.75,19.65,189.53,0.78,238.589c-8.72,6.22-18.85,10.07-28.35,14.87C6951.91,1879.964,6937.55,1880.203,6923.46,1880.433z"
	/>
</svg>
